<?xml version="1.0" standalone="no"?>
<!DOCTYPE svg PUBLIC "-//W3C//DTD SVG 20010904//EN"
 "http://www.w3.org/TR/2001/REC-SVG-20010904/DTD/svg10.dtd">
<svg version="1.0" xmlns="http://www.w3.org/2000/svg"
 width="783.000000pt" height="371.000000pt" viewBox="0 0 783.000000 371.000000"
 preserveAspectRatio="xMidYMid meet">
<metadata>
Created by potrace 1.15, written by Peter Selinger 2001-2017
</metadata>
<g transform="translate(0.000000,371.000000) scale(0.100000,-0.100000)"
fill="#000000" stroke="none">
<path d="M2604 3672 c-22 -20 -184 -165 -360 -322 -175 -156 -462 -412 -637
-569 l-318 -284 3 -471 c4 -458 4 -473 26 -539 48 -142 170 -280 306 -345 122
-58 108 -57 886 -57 l715 0 80 28 c44 16 96 38 115 49 113 68 211 188 257 318
27 75 28 76 31 403 l4 327 206 -2 207 -3 5 -335 c5 -316 6 -338 27 -394 68
-178 207 -310 393 -372 51 -17 109 -19 730 -22 473 -2 699 0 755 8 241 35 435
210 490 444 12 49 15 152 14 516 l0 455 -147 130 c-157 138 -792 706 -1025
915 -77 69 -149 132 -161 141 -20 16 -24 13 -114 -87 l-92 -103 262 -238 c197
-179 734 -665 833 -754 5 -5 -961 -9 -2179 -9 l-2187 0 54 48 c29 26 150 135
268 242 118 108 331 301 474 430 143 129 271 245 284 257 l24 22 -59 67 c-32
36 -75 84 -94 105 l-35 39 -41 -38z m2794 -1552 l60 -195 202 -5 202 -5 -24
-21 c-13 -12 -81 -65 -153 -119 -71 -54 -133 -101 -137 -104 -4 -4 19 -94 52
-201 33 -107 59 -198 57 -202 -1 -3 -73 48 -160 114 -87 66 -164 117 -171 115
-7 -3 -81 -57 -164 -121 -82 -64 -152 -116 -155 -116 -2 0 11 51 30 113 73
236 83 271 83 283 0 7 -64 62 -141 121 -78 59 -151 116 -163 125 -20 17 -11
17 185 18 l205 0 59 193 c60 196 65 211 70 205 2 -2 30 -91 63 -198z m-2874
138 c8 -29 35 -116 59 -193 l43 -140 205 -5 204 -5 -105 -80 c-58 -44 -131
-99 -162 -123 -32 -24 -58 -48 -58 -53 0 -5 27 -96 60 -201 33 -106 58 -193
56 -195 -3 -3 -142 101 -252 188 -34 27 -67 49 -74 49 -7 0 -44 -25 -84 -56
-195 -151 -239 -184 -242 -181 -2 2 23 89 56 195 33 105 60 195 60 200 0 6
-73 65 -162 133 l-163 124 204 5 205 5 32 105 c18 58 45 144 60 193 14 48 30
87 34 87 5 0 15 -24 24 -52z"/>
<path d="M5244 1764 l-18 -67 40 -33 c21 -19 47 -36 56 -39 21 -7 118 63 117
85 0 8 -8 38 -18 65 l-18 50 -70 3 -71 3 -18 -67z"/>
<path d="M2411 1768 l-19 -63 46 -42 c26 -24 53 -43 62 -43 9 0 36 19 62 43
l46 42 -20 63 -20 62 -69 0 -68 0 -20 -62z"/>
<path d="M5085 760 c-3 -5 -3 -25 1 -45 4 -25 0 -46 -15 -79 -22 -45 -175
-216 -193 -216 -7 0 -9 30 -6 84 3 66 10 96 31 136 15 29 27 54 27 57 0 14
-130 -6 -168 -26 -68 -35 -105 -119 -67 -151 27 -23 46 -5 39 38 -5 35 -3 41
30 70 20 18 46 32 57 32 19 0 19 0 -1 -40 -15 -29 -20 -59 -20 -117 0 -110 10
-183 25 -183 7 0 63 52 124 116 98 103 111 113 111 90 0 -41 17 -66 46 -66 31
0 40 23 20 52 -21 30 -20 56 4 96 18 28 85 70 96 60 5 -6 -63 -263 -76 -287
-6 -12 -22 -24 -36 -27 -59 -15 -10 -26 130 -30 145 -3 148 -3 172 21 27 27
31 57 9 75 -26 22 -50 8 -50 -30 0 -39 5 -37 -102 -24 -50 6 -51 7 -43 33 5
14 14 45 20 69 10 39 13 42 45 42 28 0 35 -4 35 -20 0 -13 7 -20 19 -20 17 0
30 38 31 88 0 17 -37 15 -44 -3 -3 -9 -18 -15 -37 -15 -34 0 -34 -6 -8 93 9
36 11 37 55 37 37 0 47 -4 51 -20 8 -30 39 -25 51 9 6 16 8 32 5 35 -14 13
-244 6 -280 -9 -19 -8 -36 -15 -37 -15 -1 0 0 16 2 35 4 36 -11 65 -34 65 -7
0 -16 -4 -19 -10z"/>
<path d="M3452 704 c-30 -21 -58 -78 -78 -160 -9 -38 -20 -73 -24 -77 -8 -9
-52 103 -74 188 -13 49 -13 50 -50 48 -62 -4 -115 -22 -147 -51 -54 -48 -49
-159 6 -138 13 5 15 15 10 48 -8 53 6 74 60 93 30 10 41 10 43 1 5 -20 -56
-246 -75 -278 -25 -44 -47 -55 -69 -37 -10 8 -39 14 -68 14 l-51 0 3 60 c2 32
12 111 22 174 11 64 17 117 15 119 -2 2 -41 -1 -87 -7 -87 -12 -122 -29 -147
-73 -20 -35 -7 -80 22 -76 19 3 22 8 19 39 -2 24 3 40 15 51 19 16 83 30 83
18 0 -4 -15 -27 -33 -51 -18 -24 -65 -91 -104 -149 -91 -134 -121 -163 -157
-154 -26 6 -26 7 -10 25 14 15 15 22 5 32 -9 9 -19 4 -45 -25 -60 -66 -121
-58 -146 18 -48 143 97 364 195 300 20 -14 25 -25 25 -61 0 -33 4 -45 15 -45
9 0 15 9 15 23 0 12 3 38 6 58 6 33 4 36 -35 53 -108 49 -244 -35 -286 -177
-28 -94 -15 -167 38 -216 33 -30 103 -39 143 -18 25 13 31 13 42 1 7 -8 26
-14 43 -14 35 0 100 56 151 130 32 48 35 49 82 50 45 0 48 -2 43 -22 -3 -13
-8 -38 -12 -56 l-7 -33 69 3 c54 2 72 -1 86 -15 24 -24 88 -22 121 4 34 27 49
57 75 154 12 44 24 87 27 95 3 8 20 -28 38 -80 41 -118 66 -170 82 -170 7 0
18 25 24 58 19 87 70 254 86 280 12 19 20 21 53 16 42 -7 61 7 41 31 -16 20
-70 19 -98 -1z"/>
<path d="M793 668 c-25 -24 -69 -77 -97 -118 -43 -64 -51 -71 -53 -50 -1 14
-5 65 -9 114 l-6 88 -78 -4 c-88 -5 -132 -25 -167 -78 -28 -40 -29 -81 -5
-103 39 -36 82 -5 47 33 -35 39 8 98 83 115 l34 7 -7 -49 c-13 -87 -54 -200
-84 -232 -27 -28 -34 -31 -70 -25 -32 5 -42 3 -47 -10 -17 -44 54 -61 110 -27
42 26 72 69 101 144 l24 62 1 -55 c0 -86 12 -160 24 -160 6 0 38 45 70 100 33
55 67 107 77 116 15 13 14 4 -7 -68 -42 -146 -44 -134 18 -141 81 -10 98 -9
98 8 0 10 -10 15 -34 15 -19 0 -37 3 -39 8 -4 6 80 293 98 335 14 33 -34 18
-82 -25z"/>
<path d="M1020 684 c-110 -48 -174 -203 -120 -292 27 -44 76 -72 128 -72 85 0
157 49 197 133 l23 49 14 -28 c14 -30 43 -43 60 -26 7 7 4 19 -11 38 -27 34
-27 63 2 105 43 65 165 101 206 60 11 -11 21 -30 21 -42 0 -24 -51 -79 -74
-79 -19 0 -20 7 -5 66 6 25 9 47 6 50 -3 3 -24 3 -47 -1 -34 -6 -40 -10 -35
-26 4 -11 -6 -67 -21 -126 -25 -97 -31 -108 -61 -125 -18 -11 -31 -23 -28 -28
6 -10 137 -22 158 -14 25 9 20 24 -8 24 -28 0 -28 -7 0 100 l12 45 16 -51 c41
-135 104 -204 186 -204 32 0 81 34 81 56 0 29 -32 28 -55 0 -43 -53 -88 -8
-131 130 l-23 75 23 9 c34 12 76 68 76 99 0 63 -62 97 -160 88 -89 -8 -149
-44 -184 -112 -13 -24 -16 -26 -16 -10 0 31 -36 83 -72 105 -40 24 -108 26
-158 4z m112 -34 c37 -29 52 -72 45 -134 -11 -111 -76 -181 -148 -160 -53 15
-74 54 -74 137 0 58 5 79 23 110 41 65 106 85 154 47z"/>
<path d="M1760 684 c-110 -48 -174 -203 -120 -292 55 -89 186 -96 274 -14 40
38 76 118 76 172 0 115 -117 183 -230 134z m112 -34 c37 -29 52 -72 45 -134
-11 -111 -76 -181 -148 -160 -52 15 -74 54 -74 132 0 83 26 139 76 164 44 23
70 23 101 -2z"/>
<path d="M2143 679 c-107 -53 -179 -214 -144 -321 28 -85 121 -122 198 -79 49
29 80 68 64 84 -9 9 -20 2 -45 -25 -60 -66 -121 -58 -146 18 -48 143 97 364
195 300 20 -14 25 -25 25 -61 0 -33 4 -45 15 -45 9 0 15 9 15 23 0 12 3 38 6
57 5 33 3 37 -30 53 -49 23 -102 22 -153 -4z"/>
<path d="M4000 691 c-97 -32 -170 -115 -170 -194 0 -40 33 -87 61 -87 32 0 34
28 5 55 -40 37 -33 78 23 138 38 42 59 51 76 34 12 -13 10 -30 -16 -128 -31
-119 -50 -159 -74 -159 -8 0 -15 -4 -15 -9 0 -12 170 -25 212 -16 56 12 107
47 138 94 17 24 30 49 30 55 0 6 5 5 12 -2 17 -17 57 -15 64 3 3 8 -1 24 -10
37 -21 30 -20 56 4 96 18 28 85 70 96 60 5 -6 -63 -263 -76 -287 -6 -12 -22
-24 -36 -27 -59 -15 -10 -26 130 -30 145 -3 148 -3 172 21 27 27 31 57 9 75
-26 22 -50 8 -50 -30 0 -39 5 -37 -102 -24 -50 6 -51 7 -43 33 5 14 14 45 20
69 10 39 13 42 45 42 28 0 35 -4 35 -20 0 -13 7 -20 19 -20 17 0 30 38 31 88
0 17 -37 15 -44 -3 -3 -9 -18 -15 -37 -15 -34 0 -34 -6 -8 93 9 36 11 37 55
37 37 0 47 -4 51 -20 8 -30 39 -25 51 9 6 16 8 32 5 35 -4 3 -61 6 -128 6
-105 0 -126 -3 -165 -22 -26 -13 -55 -39 -69 -61 l-24 -37 -15 31 c-26 53 -82
82 -165 85 -40 2 -83 0 -97 -5z m140 -39 c68 -33 88 -122 48 -202 -27 -52 -66
-77 -133 -87 -47 -6 -48 -6 -40 18 16 52 65 245 65 261 0 9 -10 18 -22 21 -16
3 -11 5 12 6 19 0 51 -7 70 -17z"/>
<path d="M5644 681 c-58 -36 -79 -73 -124 -228 -17 -60 -26 -75 -50 -88 -17
-9 -30 -19 -30 -24 0 -5 68 -12 150 -16 130 -6 154 -5 175 9 47 31 40 101 -9
94 -17 -2 -21 -10 -21 -38 0 -39 9 -37 -108 -24 -46 6 -57 10 -52 22 3 8 17
56 31 105 25 91 55 160 74 172 5 3 23 -4 39 -16 31 -23 61 -20 61 5 0 22 -40
46 -75 46 -16 0 -44 -9 -61 -19z"/>
<path d="M5970 684 c-110 -48 -174 -203 -120 -292 56 -91 188 -96 277 -10 17
17 37 43 43 59 l12 29 22 -33 c23 -34 51 -46 68 -29 8 8 3 21 -16 42 -31 37
-33 73 -7 116 83 137 320 133 246 -4 -19 -33 -68 -62 -82 -48 -3 3 1 32 10 66
9 35 11 63 6 66 -13 8 -89 -6 -89 -16 0 -5 5 -10 11 -12 7 -2 3 -29 -10 -78
-11 -41 -25 -94 -31 -118 -9 -35 -17 -45 -47 -57 -54 -23 -31 -34 77 -37 84
-3 95 -1 98 15 3 16 -1 17 -32 11 -41 -7 -42 -5 -23 71 13 48 15 50 55 57 22
4 50 11 60 17 16 8 21 6 30 -14 8 -17 20 -25 37 -25 32 0 41 22 21 52 -21 30
-20 56 4 96 18 28 85 70 96 60 5 -6 -63 -263 -76 -287 -6 -12 -22 -24 -36 -27
-58 -15 -9 -26 129 -30 146 -4 148 -4 173 21 27 27 31 57 9 75 -26 22 -50 8
-50 -30 0 -39 5 -37 -102 -24 -50 6 -51 7 -43 33 5 14 14 45 20 69 10 39 13
42 45 42 28 0 35 -4 35 -20 0 -13 7 -20 19 -20 17 0 30 38 31 88 0 17 -37 15
-44 -3 -3 -9 -18 -15 -37 -15 -34 0 -34 -6 -8 93 9 36 11 37 55 37 37 0 47 -4
51 -20 8 -30 39 -25 51 9 6 16 8 32 5 35 -4 3 -61 6 -128 6 -109 0 -127 -3
-170 -24 -43 -22 -49 -23 -63 -9 -34 34 -128 44 -203 22 -45 -14 -104 -60
-130 -103 -15 -25 -19 -27 -19 -11 0 31 -36 83 -72 105 -40 24 -108 26 -158 4z
m112 -34 c37 -29 52 -72 45 -134 -11 -111 -76 -181 -148 -160 -52 15 -74 54
-74 132 0 83 26 139 76 164 44 23 70 23 101 -2z"/>
<path d="M7080 691 c-84 -26 -140 -84 -147 -154 -4 -48 13 -90 41 -95 32 -7
41 14 17 44 -27 34 -27 63 2 105 43 65 165 101 206 60 11 -11 21 -30 21 -42 0
-24 -51 -79 -74 -79 -19 0 -20 7 -5 66 6 25 9 47 6 50 -3 3 -24 3 -47 -1 -34
-6 -40 -10 -35 -26 4 -11 -6 -67 -21 -126 -25 -97 -31 -108 -61 -125 -18 -11
-31 -23 -28 -28 6 -10 137 -22 158 -14 25 9 20 24 -8 24 -28 0 -28 -7 0 100
l12 45 16 -51 c20 -66 49 -122 81 -157 46 -49 115 -62 157 -28 14 10 42 26 64
35 77 32 119 97 100 155 -3 12 -26 44 -51 73 -24 28 -44 60 -44 71 0 44 44 84
80 72 16 -5 20 -15 20 -51 0 -63 23 -57 42 11 15 52 14 56 -3 65 -22 12 -90
13 -121 1 -32 -12 -77 -59 -84 -88 -10 -37 4 -71 46 -116 48 -53 57 -85 36
-126 -15 -29 -23 -33 -88 -46 -18 -3 -35 12 -53 49 -14 28 -46 27 -61 -2 -11
-23 -13 -21 -29 30 -9 29 -21 66 -25 81 -8 24 -6 29 14 37 12 4 35 23 49 40
45 52 32 111 -28 136 -36 15 -114 17 -155 5z"/>
</g>
</svg>
